# xmcd
# 
# Track frame offsets:
#     150
#     15390
#     30438
#     43590
#     56633
#     69905
#     88291
#     99882
#     117173
#     132114
#     146289
#     157404
# 
# Disc length: 2362
# 
# Revision: 1
# Processed by: cddbd v1.5.2PL0 Copyright (c) Steve Scherf et al.
# Submitted via: fre:ac v1.0.27
# 
DISCID=9609380c
DTITLE=Fantasia - Christmas After Midnight
DYEAR=2017
DGENRE=Chrismas
TTITLE0=This Christmas
TTITLE1=Sants Claus Go Straight To The Ghetto
TTITLE2=The Snow Is Falling
TTITLE3=Baby, It's Cold Outside
TTITLE4=The Christmas Song
TTITLE5=Give Love On Christmas Day
TTITLE6=Merry Christmas Baby
TTITLE7=Silent Night
TTITLE8=Have Yourself A Merry Little Christmas
TTITLE9=What Are You Doing New Year's Eve?
TTITLE10=In The Wee Small HoursOf The Morning
TTITLE11=Hallelujah
EXTD=
EXTT0=
EXTT1=
EXTT2=
EXTT3=
EXTT4=
EXTT5=
EXTT6=
EXTT7=
EXTT8=
EXTT9=
EXTT10=
EXTT11=
PLAYORDER=
